<svg xmlns="http://www.w3.org/2000/svg" xmlns:xlink="http://www.w3.org/1999/xlink" viewBox="0 0 504 378"><defs><style type="text/css">polyline,rect{fill:none;stroke:#000;stroke-linecap:round;stroke-linejoin:round;stroke-miterlimit:10}</style></defs><rect width="100%" height="100%" style="stroke:none;fill:none"/><rect width="504" height="378" x="0" y="0" style="stroke-width:1.07;stroke:none"/><defs><clipPath id="cpNjcuMDR8NDk4LjUyfDM0Ni43MXwyNy44MA=="><rect width="431.48" height="318.9" x="67.04" y="27.8"/></clipPath></defs><polyline points="86.65 297.71 165.1 273.46 243.55 249.2 322.01 224.95 400.46 200.7 478.91 176.44" clip-path="url(#cpNjcuMDR8NDk4LjUyfDM0Ni43MXwyNy44MA==)" style="stroke-width:1.07;stroke:#ebebeb;stroke-linecap:butt"/><polyline points="86.65 298.93 165.1 283.67 243.55 268.41 322.01 253.15 400.46 237.88 478.91 222.62" clip-path="url(#cpNjcuMDR8NDk4LjUyfDM0Ni43MXwyNy44MA==)" style="stroke-width:1.07;stroke:#ebebeb;stroke-linecap:butt"/><polyline points="86.65 269.15 165.1 247.37 243.55 225.59 322.01 203.8 400.46 182.02 478.91 160.24" clip-path="url(#cpNjcuMDR8NDk4LjUyfDM0Ni43MXwyNy44MA==)" style="stroke-width:1.07;stroke:#ebebeb;stroke-linecap:butt"/><polyline points="86.65 281.8 165.1 272.41 243.55 263.02 322.01 253.63 400.46 244.24 478.91 234.86" clip-path="url(#cpNjcuMDR8NDk4LjUyfDM0Ni43MXwyNy44MA==)" style="stroke-width:1.07;stroke:#ebebeb;stroke-linecap:butt"/><polyline points="86.65 255.46 165.1 243.71 243.55 231.97 322.01 220.22 400.46 208.48 478.91 196.73" clip-path="url(#cpNjcuMDR8NDk4LjUyfDM0Ni43MXwyNy44MA==)" style="stroke-width:1.07;stroke:#ebebeb;stroke-linecap:butt"/><polyline points="86.65 298.21 165.1 289 243.55 279.8 322.01 270.59 400.46 261.39 478.91 252.18" clip-path="url(#cpNjcuMDR8NDk4LjUyfDM0Ni43MXwyNy44MA==)" style="stroke-width:1.07;stroke:#ebebeb;stroke-linecap:butt"/><polyline points="86.65 290.5 165.1 274.3 243.55 258.09 322.01 241.88 400.46 225.68 478.91 209.47" clip-path="url(#cpNjcuMDR8NDk4LjUyfDM0Ni43MXwyNy44MA==)" style="stroke-width:1.07;stroke:#ebebeb;stroke-linecap:butt"/><polyline points="86.65 246.26 165.1 226.28 243.55 206.3 322.01 186.33 400.46 166.35 478.91 146.38" clip-path="url(#cpNjcuMDR8NDk4LjUyfDM0Ni43MXwyNy44MA==)" style="stroke-width:1.07;stroke:#ebebeb;stroke-linecap:butt"/><polyline points="86.65 262.67 165.1 242.87 243.55 223.08 322.01 203.29 400.46 183.5 478.91 163.7" clip-path="url(#cpNjcuMDR8NDk4LjUyfDM0Ni43MXwyNy44MA==)" style="stroke-width:1.07;stroke:#ebebeb;stroke-linecap:butt"/><polyline points="86.65 253.6 165.1 243.65 243.55 233.71 322.01 223.76 400.46 213.82 478.91 203.87" clip-path="url(#cpNjcuMDR8NDk4LjUyfDM0Ni43MXwyNy44MA==)" style="stroke-width:1.07;stroke:#ebebeb;stroke-linecap:butt"/><polyline points="86.65 248.16 165.1 217.77 243.55 187.39 322.01 157 400.46 126.61 478.91 96.22" clip-path="url(#cpNjcuMDR8NDk4LjUyfDM0Ni43MXwyNy44MA==)" style="stroke-width:1.07;stroke:#ebebeb;stroke-linecap:butt"/><polyline points="86.65 271.55 165.1 254.41 243.55 237.26 322.01 220.12 400.46 202.97 478.91 185.82" clip-path="url(#cpNjcuMDR8NDk4LjUyfDM0Ni43MXwyNy44MA==)" style="stroke-width:1.07;stroke:#ebebeb;stroke-linecap:butt"/><polyline points="86.65 225.86 165.1 195.1 243.55 164.34 322.01 133.58 400.46 102.82 478.91 72.06" clip-path="url(#cpNjcuMDR8NDk4LjUyfDM0Ni43MXwyNy44MA==)" style="stroke-width:1.07;stroke:#ebebeb;stroke-linecap:butt"/><polyline points="86.65 265.57 165.1 243.5 243.55 221.44 322.01 199.37 400.46 177.31 478.91 155.24" clip-path="url(#cpNjcuMDR8NDk4LjUyfDM0Ni43MXwyNy44MA==)" style="stroke-width:1.07;stroke:#ebebeb;stroke-linecap:butt"/><polyline points="86.65 292.68 165.1 280.26 243.55 267.84 322.01 255.42 400.46 242.99 478.91 230.57" clip-path="url(#cpNjcuMDR8NDk4LjUyfDM0Ni43MXwyNy44MA==)" style="stroke-width:1.07;stroke:#ebebeb;stroke-linecap:butt"/><polyline points="86.65 273.59 165.1 264.11 243.55 254.63 322.01 245.15 400.46 235.67 478.91 226.19" clip-path="url(#cpNjcuMDR8NDk4LjUyfDM0Ni43MXwyNy44MA==)" style="stroke-width:1.07;stroke:#ebebeb;stroke-linecap:butt"/><polyline points="86.65 293.58 165.1 284.57 243.55 275.56 322.01 266.54 400.46 257.53 478.91 248.52" clip-path="url(#cpNjcuMDR8NDk4LjUyfDM0Ni43MXwyNy44MA==)" style="stroke-width:1.07;stroke:#ebebeb;stroke-linecap:butt"/><polyline points="86.65 290.91 165.1 285.02 243.55 279.13 322.01 273.24 400.46 267.35 478.91 261.46" clip-path="url(#cpNjcuMDR8NDk4LjUyfDM0Ni43MXwyNy44MA==)" style="stroke-width:1.07;stroke:#ebebeb;stroke-linecap:butt"/><polyline points="86.65 280.44 165.1 265.94 243.55 251.44 322.01 236.94 400.46 222.44 478.91 207.94" clip-path="url(#cpNjcuMDR8NDk4LjUyfDM0Ni43MXwyNy44MA==)" style="stroke-width:1.07;stroke:#ebebeb;stroke-linecap:butt"/><polyline points="86.65 240.82 165.1 222.36 243.55 203.9 322.01 185.44 400.46 166.98 478.91 148.52" clip-path="url(#cpNjcuMDR8NDk4LjUyfDM0Ni43MXwyNy44MA==)" style="stroke-width:1.07;stroke:#ebebeb;stroke-linecap:butt"/><polyline points="86.65 287.78 165.1 283.31 243.55 278.84 322.01 274.38 400.46 269.91 478.91 265.44" clip-path="url(#cpNjcuMDR8NDk4LjUyfDM0Ni43MXwyNy44MA==)" style="stroke-width:1.07;stroke:#ebebeb;stroke-linecap:butt"/><polyline points="86.65 252.01 165.1 236.11 243.55 220.2 322.01 204.29 400.46 188.38 478.91 172.47" clip-path="url(#cpNjcuMDR8NDk4LjUyfDM0Ni43MXwyNy44MA==)" style="stroke-width:1.07;stroke:#ebebeb;stroke-linecap:butt"/><polyline points="86.65 241.22 165.1 233.08 243.55 224.94 322.01 216.79 400.46 208.65 478.91 200.51" clip-path="url(#cpNjcuMDR8NDk4LjUyfDM0Ni43MXwyNy44MA==)" style="stroke-width:1.07;stroke:#ebebeb;stroke-linecap:butt"/><polyline points="86.65 254.87 165.1 245.3 243.55 235.73 322.01 226.17 400.46 216.6 478.91 207.03" clip-path="url(#cpNjcuMDR8NDk4LjUyfDM0Ni43MXwyNy44MA==)" style="stroke-width:1.07;stroke:#ebebeb;stroke-linecap:butt"/><polyline points="86.65 209.13 165.1 194.56 243.55 179.99 322.01 165.42 400.46 150.86 478.91 136.29" clip-path="url(#cpNjcuMDR8NDk4LjUyfDM0Ni43MXwyNy44MA==)" style="stroke-width:1.07;stroke:#ebebeb;stroke-linecap:butt"/><polyline points="86.65 291.5 165.1 283.43 243.55 275.37 322.01 267.3 400.46 259.23 478.91 251.17" clip-path="url(#cpNjcuMDR8NDk4LjUyfDM0Ni43MXwyNy44MA==)" style="stroke-width:1.07;stroke:#ebebeb;stroke-linecap:butt"/><polyline points="86.65 307.68 165.1 298.95 243.55 290.21 322.01 281.48 400.46 272.74 478.91 264.01" clip-path="url(#cpNjcuMDR8NDk4LjUyfDM0Ni43MXwyNy44MA==)" style="stroke-width:1.07;stroke:#ebebeb;stroke-linecap:butt"/><polyline points="86.65 250.97 165.1 235.54 243.55 220.1 322.01 204.67 400.46 189.23 478.91 173.8" clip-path="url(#cpNjcuMDR8NDk4LjUyfDM0Ni43MXwyNy44MA==)" style="stroke-width:1.07;stroke:#ebebeb;stroke-linecap:butt"/><polyline points="86.65 253.28 165.1 237.75 243.55 222.22 322.01 206.69 400.46 191.16 478.91 175.63" clip-path="url(#cpNjcuMDR8NDk4LjUyfDM0Ni43MXwyNy44MA==)" style="stroke-width:1.07;stroke:#ebebeb;stroke-linecap:butt"/><polyline points="86.65 234.79 165.1 220.02 243.55 205.25 322.01 190.49 400.46 175.72 478.91 160.96" clip-path="url(#cpNjcuMDR8NDk4LjUyfDM0Ni43MXwyNy44MA==)" style="stroke-width:1.07;stroke:#ebebeb;stroke-linecap:butt"/><polyline points="86.65 306.41 165.1 297.3 243.55 288.19 322.01 279.07 400.46 269.96 478.91 260.85" clip-path="url(#cpNjcuMDR8NDk4LjUyfDM0Ni43MXwyNy44MA==)" style="stroke-width:1.07;stroke:#ebebeb;stroke-linecap:butt"/><polyline points="86.65 246.62 165.1 223.61 243.55 200.61 322.01 177.6 400.46 154.6 478.91 131.6" clip-path="url(#cpNjcuMDR8NDk4LjUyfDM0Ni43MXwyNy44MA==)" style="stroke-width:1.07;stroke:#ebebeb;stroke-linecap:butt"/><polyline points="86.65 281.93 165.1 268.67 243.55 255.4 322.01 242.13 400.46 228.86 478.91 215.59" clip-path="url(#cpNjcuMDR8NDk4LjUyfDM0Ni43MXwyNy44MA==)" style="stroke-width:1.07;stroke:#ebebeb;stroke-linecap:butt"/><polyline points="86.65 278.08 165.1 272.29 243.55 266.5 322.01 260.71 400.46 254.92 478.91 249.13" clip-path="url(#cpNjcuMDR8NDk4LjUyfDM0Ni43MXwyNy44MA==)" style="stroke-width:1.07;stroke:#ebebeb;stroke-linecap:butt"/><polyline points="86.65 283.75 165.1 255.34 243.55 226.92 322.01 198.51 400.46 170.1 478.91 141.68" clip-path="url(#cpNjcuMDR8NDk4LjUyfDM0Ni43MXwyNy44MA==)" style="stroke-width:1.07;stroke:#ebebeb;stroke-linecap:butt"/><polyline points="86.65 261.17 165.1 240.15 243.55 219.13 322.01 198.1 400.46 177.08 478.91 156.06" clip-path="url(#cpNjcuMDR8NDk4LjUyfDM0Ni43MXwyNy44MA==)" style="stroke-width:1.07;stroke:#ebebeb;stroke-linecap:butt"/><polyline points="86.65 280.62 165.1 253.63 243.55 226.64 322.01 199.64 400.46 172.65 478.91 145.66" clip-path="url(#cpNjcuMDR8NDk4LjUyfDM0Ni43MXwyNy44MA==)" style="stroke-width:1.07;stroke:#ebebeb;stroke-linecap:butt"/><polyline points="86.65 227.44 165.1 202.65 243.55 177.85 322.01 153.05 400.46 128.26 478.91 103.46" clip-path="url(#cpNjcuMDR8NDk4LjUyfDM0Ni43MXwyNy44MA==)" style="stroke-width:1.07;stroke:#ebebeb;stroke-linecap:butt"/><polyline points="86.65 281.84 165.1 263.84 243.55 245.84 322.01 227.84 400.46 209.84 478.91 191.84" clip-path="url(#cpNjcuMDR8NDk4LjUyfDM0Ni43MXwyNy44MA==)" style="stroke-width:1.07;stroke:#ebebeb;stroke-linecap:butt"/><polyline points="86.65 251.61 165.1 225.38 243.55 199.16 322.01 172.93 400.46 146.71 478.91 120.48" clip-path="url(#cpNjcuMDR8NDk4LjUyfDM0Ni43MXwyNy44MA==)" style="stroke-width:1.07;stroke:#ebebeb;stroke-linecap:butt"/><polyline points="86.65 216.47 165.1 189.98 243.55 163.48 322.01 136.98 400.46 110.49 478.91 83.99" clip-path="url(#cpNjcuMDR8NDk4LjUyfDM0Ni43MXwyNy44MA==)" style="stroke-width:1.07;stroke:#ebebeb;stroke-linecap:butt"/><polyline points="86.65 269.33 165.1 257.01 243.55 244.7 322.01 232.38 400.46 220.06 478.91 207.74" clip-path="url(#cpNjcuMDR8NDk4LjUyfDM0Ni43MXwyNy44MA==)" style="stroke-width:1.07;stroke:#ebebeb;stroke-linecap:butt"/><polyline points="86.65 293.36 165.1 261.54 243.55 229.71 322.01 197.89 400.46 166.06 478.91 134.24" clip-path="url(#cpNjcuMDR8NDk4LjUyfDM0Ni43MXwyNy44MA==)" style="stroke-width:1.07;stroke:#ebebeb;stroke-linecap:butt"/><polyline points="86.65 230.25 165.1 220.41 243.55 210.57 322.01 200.72 400.46 190.88 478.91 181.04" clip-path="url(#cpNjcuMDR8NDk4LjUyfDM0Ni43MXwyNy44MA==)" style="stroke-width:1.07;stroke:#ebebeb;stroke-linecap:butt"/><polyline points="86.65 241.72 165.1 226.67 243.55 211.62 322.01 196.56 400.46 181.51 478.91 166.46" clip-path="url(#cpNjcuMDR8NDk4LjUyfDM0Ni43MXwyNy44MA==)" style="stroke-width:1.07;stroke:#ebebeb;stroke-linecap:butt"/><polyline points="86.65 276.09 165.1 275.97 243.55 275.86 322.01 275.75 400.46 275.64 478.91 275.53" clip-path="url(#cpNjcuMDR8NDk4LjUyfDM0Ni43MXwyNy44MA==)" style="stroke-width:1.07;stroke:#ebebeb;stroke-linecap:butt"/><polyline points="86.65 281.44 165.1 275.08 243.55 268.72 322.01 262.36 400.46 256 478.91 249.64" clip-path="url(#cpNjcuMDR8NDk4LjUyfDM0Ni43MXwyNy44MA==)" style="stroke-width:1.07;stroke:#ebebeb;stroke-linecap:butt"/><polyline points="86.65 265.3 165.1 250.99 243.55 236.69 322.01 222.38 400.46 208.08 478.91 193.78" clip-path="url(#cpNjcuMDR8NDk4LjUyfDM0Ni43MXwyNy44MA==)" style="stroke-width:1.07;stroke:#ebebeb;stroke-linecap:butt"/><polyline points="86.65 247.03 165.1 234.34 243.55 221.65 322.01 208.96 400.46 196.27 478.91 183.58" clip-path="url(#cpNjcuMDR8NDk4LjUyfDM0Ni43MXwyNy44MA==)" style="stroke-width:1.07;stroke:#ebebeb;stroke-linecap:butt"/><polyline points="86.65 282.07 165.1 264.92 243.55 247.77 322.01 230.62 400.46 213.47 478.91 196.32" clip-path="url(#cpNjcuMDR8NDk4LjUyfDM0Ni43MXwyNy44MA==)" style="stroke-width:1.07;stroke:#ebebeb;stroke-linecap:butt"/><polyline points="86.65 301.2 165.1 272.5 243.55 243.8 322.01 215.09 400.46 186.39 478.91 157.69" clip-path="url(#cpNjcuMDR8NDk4LjUyfDM0Ni43MXwyNy44MA==)" style="stroke-width:1.07;stroke:#ebebeb;stroke-linecap:butt"/><polyline points="86.65 257.59 165.1 236.28 243.55 214.98 322.01 193.67 400.46 172.37 478.91 151.06" clip-path="url(#cpNjcuMDR8NDk4LjUyfDM0Ni43MXwyNy44MA==)" style="stroke-width:1.07;stroke:#ebebeb;stroke-linecap:butt"/><polyline points="86.65 237.05 165.1 230.8 243.55 224.56 322.01 218.31 400.46 212.06 478.91 205.81" clip-path="url(#cpNjcuMDR8NDk4LjUyfDM0Ni43MXwyNy44MA==)" style="stroke-width:1.07;stroke:#ebebeb;stroke-linecap:butt"/><polyline points="86.65 251.92 165.1 231.28 243.55 210.64 322.01 190 400.46 169.36 478.91 148.72" clip-path="url(#cpNjcuMDR8NDk4LjUyfDM0Ni43MXwyNy44MA==)" style="stroke-width:1.07;stroke:#ebebeb;stroke-linecap:butt"/><polyline points="86.65 264.07 165.1 240.78 243.55 217.48 322.01 194.19 400.46 170.89 478.91 147.6" clip-path="url(#cpNjcuMDR8NDk4LjUyfDM0Ni43MXwyNy44MA==)" style="stroke-width:1.07;stroke:#ebebeb;stroke-linecap:butt"/><polyline points="86.65 318.38 165.1 297.15 243.55 275.92 322.01 254.69 400.46 233.45 478.91 212.22" clip-path="url(#cpNjcuMDR8NDk4LjUyfDM0Ni43MXwyNy44MA==)" style="stroke-width:1.07;stroke:#ebebeb;stroke-linecap:butt"/><polyline points="86.65 268.33 165.1 247.88 243.55 227.42 322.01 206.96 400.46 186.51 478.91 166.05" clip-path="url(#cpNjcuMDR8NDk4LjUyfDM0Ni43MXwyNy44MA==)" style="stroke-width:1.07;stroke:#ebebeb;stroke-linecap:butt"/><polyline points="86.65 300.57 165.1 282.65 243.55 264.74 322.01 246.83 400.46 228.91 478.91 211" clip-path="url(#cpNjcuMDR8NDk4LjUyfDM0Ni43MXwyNy44MA==)" style="stroke-width:1.07;stroke:#ebebeb;stroke-linecap:butt"/><polyline points="86.65 260.22 165.1 244.4 243.55 228.59 322.01 212.77 400.46 196.95 478.91 181.14" clip-path="url(#cpNjcuMDR8NDk4LjUyfDM0Ni43MXwyNy44MA==)" style="stroke-width:1.07;stroke:#ebebeb;stroke-linecap:butt"/><polyline points="86.65 299.07 165.1 279.93 243.55 260.78 322.01 241.64 400.46 222.5 478.91 203.35" clip-path="url(#cpNjcuMDR8NDk4LjUyfDM0Ni43MXwyNy44MA==)" style="stroke-width:1.07;stroke:#ebebeb;stroke-linecap:butt"/><polyline points="86.65 251.83 165.1 226.46 243.55 201.09 322.01 175.71 400.46 150.34 478.91 124.97" clip-path="url(#cpNjcuMDR8NDk4LjUyfDM0Ni43MXwyNy44MA==)" style="stroke-width:1.07;stroke:#ebebeb;stroke-linecap:butt"/><polyline points="86.65 302.56 165.1 278.97 243.55 255.38 322.01 231.78 400.46 208.19 478.91 184.6" clip-path="url(#cpNjcuMDR8NDk4LjUyfDM0Ni43MXwyNy44MA==)" style="stroke-width:1.07;stroke:#ebebeb;stroke-linecap:butt"/><polyline points="86.65 242.22 165.1 220.26 243.55 198.3 322.01 176.34 400.46 154.37 478.91 132.41" clip-path="url(#cpNjcuMDR8NDk4LjUyfDM0Ni43MXwyNy44MA==)" style="stroke-width:1.07;stroke:#ebebeb;stroke-linecap:butt"/><polyline points="86.65 269.97 165.1 246.86 243.55 223.75 322.01 200.64 400.46 177.53 478.91 154.43" clip-path="url(#cpNjcuMDR8NDk4LjUyfDM0Ni43MXwyNy44MA==)" style="stroke-width:1.07;stroke:#ebebeb;stroke-linecap:butt"/><polyline points="86.65 300.43 165.1 286.4 243.55 272.37 322.01 258.33 400.46 244.3 478.91 230.27" clip-path="url(#cpNjcuMDR8NDk4LjUyfDM0Ni43MXwyNy44MA==)" style="stroke-width:1.07;stroke:#ebebeb;stroke-linecap:butt"/><polyline points="86.65 271.51 165.1 241.02 243.55 210.53 322.01 180.04 400.46 149.54 478.91 119.05" clip-path="url(#cpNjcuMDR8NDk4LjUyfDM0Ni43MXwyNy44MA==)" style="stroke-width:1.07;stroke:#ebebeb;stroke-linecap:butt"/><polyline points="86.65 268.7 165.1 267.17 243.55 265.64 322.01 264.11 400.46 262.58 478.91 261.06" clip-path="url(#cpNjcuMDR8NDk4LjUyfDM0Ni43MXwyNy44MA==)" style="stroke-width:1.07;stroke:#ebebeb;stroke-linecap:butt"/><polyline points="86.65 315.48 165.1 296.52 243.55 277.56 322.01 258.6 400.46 239.64 478.91 220.68" clip-path="url(#cpNjcuMDR8NDk4LjUyfDM0Ni43MXwyNy44MA==)" style="stroke-width:1.07;stroke:#ebebeb;stroke-linecap:butt"/><polyline points="86.65 302.97 165.1 289.69 243.55 276.42 322.01 263.14 400.46 249.86 478.91 236.59" clip-path="url(#cpNjcuMDR8NDk4LjUyfDM0Ni43MXwyNy44MA==)" style="stroke-width:1.07;stroke:#ebebeb;stroke-linecap:butt"/><polyline points="86.65 266.11 165.1 250.48 243.55 234.85 322.01 219.22 400.46 203.6 478.91 187.97" clip-path="url(#cpNjcuMDR8NDk4LjUyfDM0Ni43MXwyNy44MA==)" style="stroke-width:1.07;stroke:#ebebeb;stroke-linecap:butt"/><polyline points="86.65 246.53 165.1 240.75 243.55 234.97 322.01 229.19 400.46 223.41 478.91 217.63" clip-path="url(#cpNjcuMDR8NDk4LjUyfDM0Ni43MXwyNy44MA==)" style="stroke-width:1.07;stroke:#ebebeb;stroke-linecap:butt"/><polyline points="86.65 220.96 165.1 198.15 243.55 175.35 322.01 152.54 400.46 129.74 478.91 106.93" clip-path="url(#cpNjcuMDR8NDk4LjUyfDM0Ni43MXwyNy44MA==)" style="stroke-width:1.07;stroke:#ebebeb;stroke-linecap:butt"/><polyline points="86.65 278.08 165.1 272.29 243.55 266.5 322.01 260.71 400.46 254.92 478.91 249.13" clip-path="url(#cpNjcuMDR8NDk4LjUyfDM0Ni43MXwyNy44MA==)" style="stroke-width:1.07;stroke:#ebebeb;stroke-linecap:butt"/><polyline points="86.65 221.23 165.1 212.62 243.55 204.01 322.01 195.4 400.46 186.79 478.91 178.19" clip-path="url(#cpNjcuMDR8NDk4LjUyfDM0Ni43MXwyNy44MA==)" style="stroke-width:1.07;stroke:#ebebeb;stroke-linecap:butt"/><polyline points="86.65 267.97 165.1 250.54 243.55 233.11 322.01 215.69 400.46 198.26 478.91 180.83" clip-path="url(#cpNjcuMDR8NDk4LjUyfDM0Ni43MXwyNy44MA==)" style="stroke-width:1.07;stroke:#ebebeb;stroke-linecap:butt"/><polyline points="86.65 266.97 165.1 241.41 243.55 215.84 322.01 190.27 400.46 164.7 478.91 139.14" clip-path="url(#cpNjcuMDR8NDk4LjUyfDM0Ni43MXwyNy44MA==)" style="stroke-width:1.07;stroke:#ebebeb;stroke-linecap:butt"/><polyline points="86.65 248.43 165.1 210.28 243.55 172.14 322.01 133.99 400.46 95.84 478.91 57.69" clip-path="url(#cpNjcuMDR8NDk4LjUyfDM0Ni43MXwyNy44MA==)" style="stroke-width:1.07;stroke:#ebebeb;stroke-linecap:butt"/><polyline points="86.65 304.56 165.1 297.24 243.55 289.93 322.01 282.61 400.46 275.3 478.91 267.98" clip-path="url(#cpNjcuMDR8NDk4LjUyfDM0Ni43MXwyNy44MA==)" style="stroke-width:1.07;stroke:#ebebeb;stroke-linecap:butt"/><polyline points="86.65 332.21 165.1 319.02 243.55 305.83 322.01 292.63 400.46 279.44 478.91 266.25" clip-path="url(#cpNjcuMDR8NDk4LjUyfDM0Ni43MXwyNy44MA==)" style="stroke-width:1.07;stroke:#ebebeb;stroke-linecap:butt"/><polyline points="86.65 236.06 165.1 221.67 243.55 207.28 322.01 192.89 400.46 178.5 478.91 164.12" clip-path="url(#cpNjcuMDR8NDk4LjUyfDM0Ni43MXwyNy44MA==)" style="stroke-width:1.07;stroke:#ebebeb;stroke-linecap:butt"/><polyline points="86.65 292.77 165.1 263.12 243.55 233.48 322.01 203.83 400.46 174.18 478.91 144.54" clip-path="url(#cpNjcuMDR8NDk4LjUyfDM0Ni43MXwyNy44MA==)" style="stroke-width:1.07;stroke:#ebebeb;stroke-linecap:butt"/><polyline points="86.65 223 165.1 207.86 243.55 192.72 322.01 177.58 400.46 162.44 478.91 147.3" clip-path="url(#cpNjcuMDR8NDk4LjUyfDM0Ni43MXwyNy44MA==)" style="stroke-width:1.07;stroke:#ebebeb;stroke-linecap:butt"/><polyline points="86.65 246.85 165.1 224.69 243.55 202.54 322.01 180.39 400.46 158.23 478.91 136.08" clip-path="url(#cpNjcuMDR8NDk4LjUyfDM0Ni43MXwyNy44MA==)" style="stroke-width:1.07;stroke:#ebebeb;stroke-linecap:butt"/><polyline points="86.65 317.48 165.1 314.79 243.55 312.11 322.01 309.43 400.46 306.75 478.91 304.07" clip-path="url(#cpNjcuMDR8NDk4LjUyfDM0Ni43MXwyNy44MA==)" style="stroke-width:1.07;stroke:#ebebeb;stroke-linecap:butt"/><polyline points="86.65 263.48 165.1 242.37 243.55 221.25 322.01 200.13 400.46 179.01 478.91 157.89" clip-path="url(#cpNjcuMDR8NDk4LjUyfDM0Ni43MXwyNy44MA==)" style="stroke-width:1.07;stroke:#ebebeb;stroke-linecap:butt"/><polyline points="86.65 268.24 165.1 265.01 243.55 261.78 322.01 258.55 400.46 255.32 478.91 252.09" clip-path="url(#cpNjcuMDR8NDk4LjUyfDM0Ni43MXwyNy44MA==)" style="stroke-width:1.07;stroke:#ebebeb;stroke-linecap:butt"/><polyline points="86.65 280.94 165.1 259.53 243.55 238.12 322.01 216.71 400.46 195.3 478.91 173.9" clip-path="url(#cpNjcuMDR8NDk4LjUyfDM0Ni43MXwyNy44MA==)" style="stroke-width:1.07;stroke:#ebebeb;stroke-linecap:butt"/><polyline points="86.65 269.33 165.1 257.01 243.55 244.7 322.01 232.38 400.46 220.06 478.91 207.74" clip-path="url(#cpNjcuMDR8NDk4LjUyfDM0Ni43MXwyNy44MA==)" style="stroke-width:1.07;stroke:#ebebeb;stroke-linecap:butt"/><polyline points="86.65 257.82 165.1 237.36 243.55 216.91 322.01 196.46 400.46 176 478.91 155.55" clip-path="url(#cpNjcuMDR8NDk4LjUyfDM0Ni43MXwyNy44MA==)" style="stroke-width:1.07;stroke:#ebebeb;stroke-linecap:butt"/><polyline points="86.65 286.01 165.1 266.12 243.55 246.22 322.01 226.33 400.46 206.43 478.91 186.54" clip-path="url(#cpNjcuMDR8NDk4LjUyfDM0Ni43MXwyNy44MA==)" style="stroke-width:1.07;stroke:#ebebeb;stroke-linecap:butt"/><polyline points="86.65 317.2 165.1 300.33 243.55 283.45 322.01 266.57 400.46 249.69 478.91 232.81" clip-path="url(#cpNjcuMDR8NDk4LjUyfDM0Ni43MXwyNy44MA==)" style="stroke-width:1.07;stroke:#ebebeb;stroke-linecap:butt"/><polyline points="86.65 215.48 165.1 180.84 243.55 146.2 322.01 111.57 400.46 76.93 478.91 42.3" clip-path="url(#cpNjcuMDR8NDk4LjUyfDM0Ni43MXwyNy44MA==)" style="stroke-width:1.07;stroke:#ebebeb;stroke-linecap:butt"/><polyline points="86.65 215.84 165.1 200.13 243.55 184.43 322.01 168.72 400.46 153.01 478.91 137.31" clip-path="url(#cpNjcuMDR8NDk4LjUyfDM0Ni43MXwyNy44MA==)" style="stroke-width:1.07;stroke:#ebebeb;stroke-linecap:butt"/><polyline points="86.65 253.69 165.1 248.48 243.55 243.26 322.01 238.05 400.46 232.84 478.91 227.62" clip-path="url(#cpNjcuMDR8NDk4LjUyfDM0Ni43MXwyNy44MA==)" style="stroke-width:1.07;stroke:#ebebeb;stroke-linecap:butt"/><polyline points="86.65 277.76 165.1 266.39 243.55 255.01 322.01 243.64 400.46 232.27 478.91 220.89" clip-path="url(#cpNjcuMDR8NDk4LjUyfDM0Ni43MXwyNy44MA==)" style="stroke-width:1.07;stroke:#ebebeb;stroke-linecap:butt"/><polyline points="86.65 283.88 165.1 251.59 243.55 219.3 322.01 187 400.46 154.71 478.91 122.42" clip-path="url(#cpNjcuMDR8NDk4LjUyfDM0Ni43MXwyNy44MA==)" style="stroke-width:1.07;stroke:#ebebeb;stroke-linecap:butt"/><polyline points="86.65 278.72 165.1 262.14 243.55 245.55 322.01 228.97 400.46 212.39 478.91 195.81" clip-path="url(#cpNjcuMDR8NDk4LjUyfDM0Ni43MXwyNy44MA==)" style="stroke-width:1.07;stroke:#ebebeb;stroke-linecap:butt"/><polyline points="86.65 236.28 165.1 222.75 243.55 209.21 322.01 195.67 400.46 182.14 478.91 168.6" clip-path="url(#cpNjcuMDR8NDk4LjUyfDM0Ni43MXwyNy44MA==)" style="stroke-width:1.07;stroke:#ebebeb;stroke-linecap:butt"/><polyline points="86.65 287.83 165.1 274.75 243.55 261.66 322.01 248.58 400.46 235.5 478.91 222.42" clip-path="url(#cpNjcuMDR8NDk4LjUyfDM0Ni43MXwyNy44MA==)" style="stroke-width:1.07;stroke:#ebebeb;stroke-linecap:butt"/><polyline points="86.65 311.95 165.1 306.05 243.55 300.15 322.01 294.25 400.46 288.36 478.91 282.46" clip-path="url(#cpNjcuMDR8NDk4LjUyfDM0Ni43MXwyNy44MA==)" style="stroke-width:1.07;stroke:#ebebeb;stroke-linecap:butt"/><polyline points="86.65 247.57 165.1 219.36 243.55 191.15 322.01 162.94 400.46 134.73 478.91 106.52" clip-path="url(#cpNjcuMDR8NDk4LjUyfDM0Ni43MXwyNy44MA==)" style="stroke-width:1.07;stroke:#ebebeb;stroke-linecap:butt"/><polyline points="86.65 243.04 165.1 241.71 243.55 240.38 322.01 239.05 400.46 237.72 478.91 236.39" clip-path="url(#cpNjcuMDR8NDk4LjUyfDM0Ni43MXwyNy44MA==)" style="stroke-width:1.07;stroke:#ebebeb;stroke-linecap:butt"/><polyline points="86.65 295.72 165.1 277.14 243.55 258.57 322.01 239.99 400.46 221.42 478.91 202.85" clip-path="url(#cpNjcuMDR8NDk4LjUyfDM0Ni43MXwyNy44MA==)" style="stroke-width:1.07;stroke:#ebebeb;stroke-linecap:butt"/><polyline points="86.65 276.45 165.1 251.35 243.55 226.25 322.01 201.16 400.46 176.06 478.91 150.96" clip-path="url(#cpNjcuMDR8NDk4LjUyfDM0Ni43MXwyNy44MA==)" style="stroke-width:1.07;stroke:#ebebeb;stroke-linecap:butt"/><polyline points="86.65 164.65 165.1 145.47 243.55 126.28 322.01 107.09 400.46 87.9 478.91 68.71" clip-path="url(#cpNjcuMDR8NDk4LjUyfDM0Ni43MXwyNy44MA==)" style="stroke-width:1.07;stroke:#ebebeb;stroke-linecap:butt"/><polyline points="86.65 310.59 165.1 299.58 243.55 288.57 322.01 277.56 400.46 266.55 478.91 255.55" clip-path="url(#cpNjcuMDR8NDk4LjUyfDM0Ni43MXwyNy44MA==)" style="stroke-width:1.07;stroke:#ebebeb;stroke-linecap:butt"/><polyline points="86.65 300.97 165.1 293.38 243.55 285.78 322.01 278.18 400.46 270.59 478.91 262.99" clip-path="url(#cpNjcuMDR8NDk4LjUyfDM0Ni43MXwyNy44MA==)" style="stroke-width:1.07;stroke:#ebebeb;stroke-linecap:butt"/><polyline points="86.65 307.91 165.1 300.03 243.55 292.14 322.01 284.26 400.46 276.38 478.91 268.49" clip-path="url(#cpNjcuMDR8NDk4LjUyfDM0Ni43MXwyNy44MA==)" style="stroke-width:1.07;stroke:#ebebeb;stroke-linecap:butt"/><polyline points="86.65 261.22 165.1 253.54 243.55 245.86 322.01 238.18 400.46 230.51 478.91 222.83" clip-path="url(#cpNjcuMDR8NDk4LjUyfDM0Ni43MXwyNy44MA==)" style="stroke-width:1.07;stroke:#ebebeb;stroke-linecap:butt"/><polyline points="86.65 304.51 165.1 305.81 243.55 307.11 322.01 308.41 400.46 309.7 478.91 311" clip-path="url(#cpNjcuMDR8NDk4LjUyfDM0Ni43MXwyNy44MA==)" style="stroke-width:1.07;stroke:#ebebeb;stroke-linecap:butt"/><polyline points="86.65 301.29 165.1 299.28 243.55 297.27 322.01 295.25 400.46 293.24 478.91 291.23" clip-path="url(#cpNjcuMDR8NDk4LjUyfDM0Ni43MXwyNy44MA==)" style="stroke-width:1.07;stroke:#ebebeb;stroke-linecap:butt"/><polyline points="86.65 214.97 165.1 209.21 243.55 203.44 322.01 197.67 400.46 191.91 478.91 186.14" clip-path="url(#cpNjcuMDR8NDk4LjUyfDM0Ni43MXwyNy44MA==)" style="stroke-width:1.07;stroke:#ebebeb;stroke-linecap:butt"/><polyline points="86.65 273.23 165.1 266.78 243.55 260.33 322.01 253.88 400.46 247.43 478.91 240.97" clip-path="url(#cpNjcuMDR8NDk4LjUyfDM0Ni43MXwyNy44MA==)" style="stroke-width:1.07;stroke:#ebebeb;stroke-linecap:butt"/><polyline points="86.65 273.28 165.1 258.21 243.55 243.15 322.01 228.08 400.46 213.02 478.91 197.96" clip-path="url(#cpNjcuMDR8NDk4LjUyfDM0Ni43MXwyNy44MA==)" style="stroke-width:1.07;stroke:#ebebeb;stroke-linecap:butt"/><polyline points="86.65 298.98 165.1 275.1 243.55 251.23 322.01 227.35 400.46 203.48 478.91 179.6" clip-path="url(#cpNjcuMDR8NDk4LjUyfDM0Ni43MXwyNy44MA==)" style="stroke-width:1.07;stroke:#ebebeb;stroke-linecap:butt"/><polyline points="86.65 289.23 165.1 272.65 243.55 256.06 322.01 239.48 400.46 222.9 478.91 206.31" clip-path="url(#cpNjcuMDR8NDk4LjUyfDM0Ni43MXwyNy44MA==)" style="stroke-width:1.07;stroke:#ebebeb;stroke-linecap:butt"/><polyline points="86.65 272.82 165.1 256.05 243.55 239.29 322.01 222.52 400.46 205.75 478.91 188.98" clip-path="url(#cpNjcuMDR8NDk4LjUyfDM0Ni43MXwyNy44MA==)" style="stroke-width:1.07;stroke:#ebebeb;stroke-linecap:butt"/><polyline points="86.65 276.81 165.1 248.69 243.55 220.56 322.01 192.43 400.46 164.31 478.91 136.18" clip-path="url(#cpNjcuMDR8NDk4LjUyfDM0Ni43MXwyNy44MA==)" style="stroke-width:1.07;stroke:#ebebeb;stroke-linecap:butt"/><polyline points="86.65 292.68 165.1 280.26 243.55 267.84 322.01 255.42 400.46 242.99 478.91 230.57" clip-path="url(#cpNjcuMDR8NDk4LjUyfDM0Ni43MXwyNy44MA==)" style="stroke-width:1.07;stroke:#ebebeb;stroke-linecap:butt"/><polyline points="86.65 249.93 165.1 234.97 243.55 220.01 322.01 205.05 400.46 190.08 478.91 175.12" clip-path="url(#cpNjcuMDR8NDk4LjUyfDM0Ni43MXwyNy44MA==)" style="stroke-width:1.07;stroke:#ebebeb;stroke-linecap:butt"/><polyline points="86.65 259.77 165.1 242.25 243.55 224.73 322.01 207.21 400.46 189.69 478.91 172.17" clip-path="url(#cpNjcuMDR8NDk4LjUyfDM0Ni43MXwyNy44MA==)" style="stroke-width:1.07;stroke:#ebebeb;stroke-linecap:butt"/><polyline points="86.65 231.21 165.1 216.16 243.55 201.11 322.01 186.06 400.46 171.01 478.91 155.96" clip-path="url(#cpNjcuMDR8NDk4LjUyfDM0Ni43MXwyNy44MA==)" style="stroke-width:1.07;stroke:#ebebeb;stroke-linecap:butt"/><polyline points="86.65 283.7 165.1 285.86 243.55 288.02 322.01 290.18 400.46 292.33 478.91 294.49" clip-path="url(#cpNjcuMDR8NDk4LjUyfDM0Ni43MXwyNy44MA==)" style="stroke-width:1.07;stroke:#ebebeb;stroke-linecap:butt"/><polyline points="86.65 263.94 165.1 244.52 243.55 225.11 322.01 205.69 400.46 186.28 478.91 166.86" clip-path="url(#cpNjcuMDR8NDk4LjUyfDM0Ni43MXwyNy44MA==)" style="stroke-width:1.07;stroke:#ebebeb;stroke-linecap:butt"/><polyline points="86.65 282.02 165.1 273.49 243.55 264.95 322.01 256.42 400.46 247.88 478.91 239.34" clip-path="url(#cpNjcuMDR8NDk4LjUyfDM0Ni43MXwyNy44MA==)" style="stroke-width:1.07;stroke:#ebebeb;stroke-linecap:butt"/><polyline points="86.65 285.88 165.1 269.86 243.55 253.85 322.01 237.83 400.46 221.82 478.91 205.8" clip-path="url(#cpNjcuMDR8NDk4LjUyfDM0Ni43MXwyNy44MA==)" style="stroke-width:1.07;stroke:#ebebeb;stroke-linecap:butt"/><polyline points="86.65 287.42 165.1 285.98 243.55 284.54 322.01 283.1 400.46 281.66 478.91 280.22" clip-path="url(#cpNjcuMDR8NDk4LjUyfDM0Ni43MXwyNy44MA==)" style="stroke-width:1.07;stroke:#ebebeb;stroke-linecap:butt"/><polyline points="86.65 265.39 165.1 255.82 243.55 246.24 322.01 236.67 400.46 227.1 478.91 217.53" clip-path="url(#cpNjcuMDR8NDk4LjUyfDM0Ni43MXwyNy44MA==)" style="stroke-width:1.07;stroke:#ebebeb;stroke-linecap:butt"/><polyline points="86.65 264.34 165.1 255.25 243.55 246.15 322.01 237.05 400.46 227.95 478.91 218.85" clip-path="url(#cpNjcuMDR8NDk4LjUyfDM0Ni43MXwyNy44MA==)" style="stroke-width:1.07;stroke:#ebebeb;stroke-linecap:butt"/><polyline points="86.65 249.7 165.1 233.89 243.55 218.08 322.01 202.26 400.46 186.45 478.91 170.64" clip-path="url(#cpNjcuMDR8NDk4LjUyfDM0Ni43MXwyNy44MA==)" style="stroke-width:1.07;stroke:#ebebeb;stroke-linecap:butt"/><polyline points="86.65 238.64 165.1 216.4 243.55 194.15 322.01 171.91 400.46 149.66 478.91 127.42" clip-path="url(#cpNjcuMDR8NDk4LjUyfDM0Ni43MXwyNy44MA==)" style="stroke-width:1.07;stroke:#ebebeb;stroke-linecap:butt"/><polyline points="86.65 275.32 165.1 245.96 243.55 216.6 322.01 187.25 400.46 157.89 478.91 128.53" clip-path="url(#cpNjcuMDR8NDk4LjUyfDM0Ni43MXwyNy44MA==)" style="stroke-width:1.07;stroke:#ebebeb;stroke-linecap:butt"/><polyline points="86.65 288.1 165.1 289.21 243.55 290.33 322.01 291.44 400.46 292.56 478.91 293.68" clip-path="url(#cpNjcuMDR8NDk4LjUyfDM0Ni43MXwyNy44MA==)" style="stroke-width:1.07;stroke:#ebebeb;stroke-linecap:butt"/><polyline points="86.65 261.94 165.1 248.21 243.55 234.47 322.01 220.74 400.46 207 478.91 193.27" clip-path="url(#cpNjcuMDR8NDk4LjUyfDM0Ni43MXwyNy44MA==)" style="stroke-width:1.07;stroke:#ebebeb;stroke-linecap:butt"/><polyline points="86.65 243.08 165.1 233.14 243.55 223.2 322.01 213.26 400.46 203.31 478.91 193.37" clip-path="url(#cpNjcuMDR8NDk4LjUyfDM0Ni43MXwyNy44MA==)" style="stroke-width:1.07;stroke:#ebebeb;stroke-linecap:butt"/><polyline points="86.65 270.1 165.1 265.07 243.55 260.04 322.01 255.01 400.46 249.98 478.91 244.95" clip-path="url(#cpNjcuMDR8NDk4LjUyfDM0Ni43MXwyNy44MA==)" style="stroke-width:1.07;stroke:#ebebeb;stroke-linecap:butt"/><polyline points="86.65 282.52 165.1 267.08 243.55 251.63 322.01 236.19 400.46 220.74 478.91 205.29" clip-path="url(#cpNjcuMDR8NDk4LjUyfDM0Ni43MXwyNy44MA==)" style="stroke-width:1.07;stroke:#ebebeb;stroke-linecap:butt"/><polyline points="86.65 274.77 165.1 260.94 243.55 247.1 322.01 233.27 400.46 219.43 478.91 205.6" clip-path="url(#cpNjcuMDR8NDk4LjUyfDM0Ni43MXwyNy44MA==)" style="stroke-width:1.07;stroke:#ebebeb;stroke-linecap:butt"/><polyline points="86.65 251.7 165.1 230.2 243.55 208.71 322.01 187.22 400.46 165.73 478.91 144.24" clip-path="url(#cpNjcuMDR8NDk4LjUyfDM0Ni43MXwyNy44MA==)" style="stroke-width:1.07;stroke:#ebebeb;stroke-linecap:butt"/><polyline points="86.65 272.55 165.1 263.54 243.55 254.54 322.01 245.53 400.46 236.52 478.91 227.52" clip-path="url(#cpNjcuMDR8NDk4LjUyfDM0Ni43MXwyNy44MA==)" style="stroke-width:1.07;stroke:#ebebeb;stroke-linecap:butt"/><polyline points="86.65 240.45 165.1 225.02 243.55 209.59 322.01 194.16 400.46 178.73 478.91 163.3" clip-path="url(#cpNjcuMDR8NDk4LjUyfDM0Ni43MXwyNy44MA==)" style="stroke-width:1.07;stroke:#ebebeb;stroke-linecap:butt"/><polyline points="86.65 243.08 165.1 233.14 243.55 223.2 322.01 213.26 400.46 203.31 478.91 193.37" clip-path="url(#cpNjcuMDR8NDk4LjUyfDM0Ni43MXwyNy44MA==)" style="stroke-width:1.07;stroke:#ebebeb;stroke-linecap:butt"/><polyline points="86.65 263.89 165.1 253.09 243.55 242.29 322.01 231.49 400.46 220.68 478.91 209.88" clip-path="url(#cpNjcuMDR8NDk4LjUyfDM0Ni43MXwyNy44MA==)" style="stroke-width:1.07;stroke:#ebebeb;stroke-linecap:butt"/><polyline points="86.65 261.85 165.1 243.38 243.55 224.92 322.01 206.45 400.46 187.98 478.91 169.52" clip-path="url(#cpNjcuMDR8NDk4LjUyfDM0Ni43MXwyNy44MA==)" style="stroke-width:1.07;stroke:#ebebeb;stroke-linecap:butt"/><polyline points="86.65 285.2 165.1 266.63 243.55 248.06 322.01 229.49 400.46 210.92 478.91 192.35" clip-path="url(#cpNjcuMDR8NDk4LjUyfDM0Ni43MXwyNy44MA==)" style="stroke-width:1.07;stroke:#ebebeb;stroke-linecap:butt"/><polyline points="86.65 294.85 165.1 286.22 243.55 277.58 322.01 268.95 400.46 260.31 478.91 251.68" clip-path="url(#cpNjcuMDR8NDk4LjUyfDM0Ni43MXwyNy44MA==)" style="stroke-width:1.07;stroke:#ebebeb;stroke-linecap:butt"/><polyline points="86.65 245.62 165.1 214.48 243.55 183.33 322.01 152.19 400.46 121.05 478.91 89.9" clip-path="url(#cpNjcuMDR8NDk4LjUyfDM0Ni43MXwyNy44MA==)" style="stroke-width:1.07;stroke:#ebebeb;stroke-linecap:butt"/><polyline points="86.65 271.73 165.1 264.05 243.55 256.37 322.01 248.69 400.46 241.01 478.91 233.33" clip-path="url(#cpNjcuMDR8NDk4LjUyfDM0Ni43MXwyNy44MA==)" style="stroke-width:1.07;stroke:#ebebeb;stroke-linecap:butt"/><polyline points="86.65 273.5 165.1 259.29 243.55 245.08 322.01 230.87 400.46 216.65 478.91 202.44" clip-path="url(#cpNjcuMDR8NDk4LjUyfDM0Ni43MXwyNy44MA==)" style="stroke-width:1.07;stroke:#ebebeb;stroke-linecap:butt"/><polyline points="86.65 274.14 165.1 271.09 243.55 268.05 322.01 265 400.46 261.96 478.91 258.92" clip-path="url(#cpNjcuMDR8NDk4LjUyfDM0Ni43MXwyNy44MA==)" style="stroke-width:1.07;stroke:#ebebeb;stroke-linecap:butt"/><polyline points="86.65 290.14 165.1 276.96 243.55 263.79 322.01 250.61 400.46 237.43 478.91 224.25" clip-path="url(#cpNjcuMDR8NDk4LjUyfDM0Ni43MXwyNy44MA==)" style="stroke-width:1.07;stroke:#ebebeb;stroke-linecap:butt"/><polyline points="86.65 274.41 165.1 263.6 243.55 252.8 322.01 241.99 400.46 231.19 478.91 220.38" clip-path="url(#cpNjcuMDR8NDk4LjUyfDM0Ni43MXwyNy44MA==)" style="stroke-width:1.07;stroke:#ebebeb;stroke-linecap:butt"/><polyline points="86.65 265.75 165.1 253.15 243.55 240.55 322.01 227.95 400.46 215.35 478.91 202.75" clip-path="url(#cpNjcuMDR8NDk4LjUyfDM0Ni43MXwyNy44MA==)" style="stroke-width:1.07;stroke:#ebebeb;stroke-linecap:butt"/><polyline points="86.65 256.68 165.1 231.97 243.55 207.26 322.01 182.55 400.46 157.84 478.91 133.12" clip-path="url(#cpNjcuMDR8NDk4LjUyfDM0Ni43MXwyNy44MA==)" style="stroke-width:1.07;stroke:#ebebeb;stroke-linecap:butt"/><polyline points="86.65 259.36 165.1 253.48 243.55 247.6 322.01 241.72 400.46 235.84 478.91 229.97" clip-path="url(#cpNjcuMDR8NDk4LjUyfDM0Ni43MXwyNy44MA==)" style="stroke-width:1.07;stroke:#ebebeb;stroke-linecap:butt"/><polyline points="86.65 267.7 165.1 258.03 243.55 248.36 322.01 238.7 400.46 229.03 478.91 219.36" clip-path="url(#cpNjcuMDR8NDk4LjUyfDM0Ni43MXwyNy44MA==)" style="stroke-width:1.07;stroke:#ebebeb;stroke-linecap:butt"/><polyline points="86.65 217.33 165.1 202.86 243.55 188.38 322.01 173.91 400.46 159.43 478.91 144.95" clip-path="url(#cpNjcuMDR8NDk4LjUyfDM0Ni43MXwyNy44MA==)" style="stroke-width:1.07;stroke:#ebebeb;stroke-linecap:butt"/><polyline points="86.65 245.94 165.1 242.34 243.55 238.73 322.01 235.13 400.46 231.53 478.91 227.93" clip-path="url(#cpNjcuMDR8NDk4LjUyfDM0Ni43MXwyNy44MA==)" style="stroke-width:1.07;stroke:#ebebeb;stroke-linecap:butt"/><polyline points="86.65 233.25 165.1 203.9 243.55 174.56 322.01 145.22 400.46 115.88 478.91 86.54" clip-path="url(#cpNjcuMDR8NDk4LjUyfDM0Ni43MXwyNy44MA==)" style="stroke-width:1.07;stroke:#ebebeb;stroke-linecap:butt"/><polyline points="86.65 243.99 165.1 215.5 243.55 187 322.01 158.51 400.46 130.02 478.91 101.52" clip-path="url(#cpNjcuMDR8NDk4LjUyfDM0Ni43MXwyNy44MA==)" style="stroke-width:1.07;stroke:#ebebeb;stroke-linecap:butt"/><polyline points="86.65 279.4 165.1 265.37 243.55 251.35 322.01 237.32 400.46 223.29 478.91 209.27" clip-path="url(#cpNjcuMDR8NDk4LjUyfDM0Ni43MXwyNy44MA==)" style="stroke-width:1.07;stroke:#ebebeb;stroke-linecap:butt"/><polyline points="86.65 327.36 165.1 313.51 243.55 299.65 322.01 285.8 400.46 271.95 478.91 258.09" clip-path="url(#cpNjcuMDR8NDk4LjUyfDM0Ni43MXwyNy44MA==)" style="stroke-width:1.07;stroke:#ebebeb;stroke-linecap:butt"/><polyline points="86.65 291 165.1 267.89 243.55 244.77 322.01 221.66 400.46 198.54 478.91 175.42" clip-path="url(#cpNjcuMDR8NDk4LjUyfDM0Ni43MXwyNy44MA==)" style="stroke-width:1.07;stroke:#ebebeb;stroke-linecap:butt"/><polyline points="86.65 291.09 165.1 272.71 243.55 254.33 322.01 235.94 400.46 217.56 478.91 199.18" clip-path="url(#cpNjcuMDR8NDk4LjUyfDM0Ni43MXwyNy44MA==)" style="stroke-width:1.07;stroke:#ebebeb;stroke-linecap:butt"/><polyline points="86.65 256.14 165.1 246.95 243.55 237.76 322.01 228.57 400.46 219.38 478.91 210.19" clip-path="url(#cpNjcuMDR8NDk4LjUyfDM0Ni43MXwyNy44MA==)" style="stroke-width:1.07;stroke:#ebebeb;stroke-linecap:butt"/><polyline points="86.65 246.71 165.1 228.44 243.55 210.16 322.01 191.89 400.46 173.62 478.91 155.35" clip-path="url(#cpNjcuMDR8NDk4LjUyfDM0Ni43MXwyNy44MA==)" style="stroke-width:1.07;stroke:#ebebeb;stroke-linecap:butt"/><polyline points="86.65 253.78 165.1 231.34 243.55 208.9 322.01 186.46 400.46 164.02 478.91 141.58" clip-path="url(#cpNjcuMDR8NDk4LjUyfDM0Ni43MXwyNy44MA==)" style="stroke-width:1.07;stroke:#ebebeb;stroke-linecap:butt"/><polyline points="86.65 241.41 165.1 220.77 243.55 200.13 322.01 179.5 400.46 158.86 478.91 138.22" clip-path="url(#cpNjcuMDR8NDk4LjUyfDM0Ni43MXwyNy44MA==)" style="stroke-width:1.07;stroke:#ebebeb;stroke-linecap:butt"/><polyline points="86.65 249.75 165.1 225.32 243.55 200.9 322.01 176.47 400.46 152.04 478.91 127.62" clip-path="url(#cpNjcuMDR8NDk4LjUyfDM0Ni43MXwyNy44MA==)" style="stroke-width:1.07;stroke:#ebebeb;stroke-linecap:butt"/><polyline points="86.65 249.79 165.1 216.75 243.55 183.72 322.01 150.68 400.46 117.64 478.91 84.6" clip-path="url(#cpNjcuMDR8NDk4LjUyfDM0Ni43MXwyNy44MA==)" style="stroke-width:1.07;stroke:#ebebeb;stroke-linecap:butt"/><polyline points="86.65 293.81 165.1 285.65 243.55 277.49 322.01 269.32 400.46 261.16 478.91 253" clip-path="url(#cpNjcuMDR8NDk4LjUyfDM0Ni43MXwyNy44MA==)" style="stroke-width:1.07;stroke:#ebebeb;stroke-linecap:butt"/><polyline points="86.65 263.89 165.1 253.09 243.55 242.29 322.01 231.49 400.46 220.68 478.91 209.88" clip-path="url(#cpNjcuMDR8NDk4LjUyfDM0Ni43MXwyNy44MA==)" style="stroke-width:1.07;stroke:#ebebeb;stroke-linecap:butt"/><polyline points="86.65 264.35 165.1 233.29 243.55 202.23 322.01 171.18 400.46 140.12 478.91 109.06" clip-path="url(#cpNjcuMDR8NDk4LjUyfDM0Ni43MXwyNy44MA==)" style="stroke-width:1.07;stroke:#ebebeb;stroke-linecap:butt"/><polyline points="86.65 256.18 165.1 238.38 243.55 220.58 322.01 202.78 400.46 184.97 478.91 167.17" clip-path="url(#cpNjcuMDR8NDk4LjUyfDM0Ni43MXwyNy44MA==)" style="stroke-width:1.07;stroke:#ebebeb;stroke-linecap:butt"/><polyline points="86.65 270.19 165.1 247.94 243.55 225.68 322.01 203.42 400.46 181.17 478.91 158.91" clip-path="url(#cpNjcuMDR8NDk4LjUyfDM0Ni43MXwyNy44MA==)" style="stroke-width:1.07;stroke:#ebebeb;stroke-linecap:butt"/><polyline points="86.65 257.27 165.1 252.34 243.55 247.41 322.01 242.48 400.46 237.55 478.91 232.62" clip-path="url(#cpNjcuMDR8NDk4LjUyfDM0Ni43MXwyNy44MA==)" style="stroke-width:1.07;stroke:#ebebeb;stroke-linecap:butt"/><polyline points="86.65 241.5 165.1 225.59 243.55 209.69 322.01 193.78 400.46 177.88 478.91 161.97" clip-path="url(#cpNjcuMDR8NDk4LjUyfDM0Ni43MXwyNy44MA==)" style="stroke-width:1.07;stroke:#ebebeb;stroke-linecap:butt"/><polyline points="86.65 250.47 165.1 241.95 243.55 233.42 322.01 224.9 400.46 216.37 478.91 207.85" clip-path="url(#cpNjcuMDR8NDk4LjUyfDM0Ni43MXwyNy44MA==)" style="stroke-width:1.07;stroke:#ebebeb;stroke-linecap:butt"/><polyline points="86.65 250.02 165.1 239.79 243.55 229.56 322.01 219.33 400.46 209.1 478.91 198.88" clip-path="url(#cpNjcuMDR8NDk4LjUyfDM0Ni43MXwyNy44MA==)" style="stroke-width:1.07;stroke:#ebebeb;stroke-linecap:butt"/><polyline points="86.65 271.01 165.1 269.38 243.55 267.76 322.01 266.14 400.46 264.51 478.91 262.89" clip-path="url(#cpNjcuMDR8NDk4LjUyfDM0Ni43MXwyNy44MA==)" style="stroke-width:1.07;stroke:#ebebeb;stroke-linecap:butt"/><polyline points="86.65 307.23 165.1 296.79 243.55 286.35 322.01 275.91 400.46 265.48 478.91 255.04" clip-path="url(#cpNjcuMDR8NDk4LjUyfDM0Ni43MXwyNy44MA==)" style="stroke-width:1.07;stroke:#ebebeb;stroke-linecap:butt"/><polyline points="86.65 238.96 165.1 222.3 243.55 205.64 322.01 188.98 400.46 172.31 478.91 155.65" clip-path="url(#cpNjcuMDR8NDk4LjUyfDM0Ni43MXwyNy44MA==)" style="stroke-width:1.07;stroke:#ebebeb;stroke-linecap:butt"/><polyline points="86.65 277.72 165.1 274.96 243.55 272.19 322.01 269.43 400.46 266.67 478.91 263.91" clip-path="url(#cpNjcuMDR8NDk4LjUyfDM0Ni43MXwyNy44MA==)" style="stroke-width:1.07;stroke:#ebebeb;stroke-linecap:butt"/><polyline points="86.65 278.63 165.1 257.31 243.55 236 322.01 214.69 400.46 193.37 478.91 172.06" clip-path="url(#cpNjcuMDR8NDk4LjUyfDM0Ni43MXwyNy44MA==)" style="stroke-width:1.07;stroke:#ebebeb;stroke-linecap:butt"/><polyline points="86.65 247.25 165.1 235.42 243.55 223.58 322.01 211.74 400.46 199.91 478.91 188.07" clip-path="url(#cpNjcuMDR8NDk4LjUyfDM0Ni43MXwyNy44MA==)" style="stroke-width:1.07;stroke:#ebebeb;stroke-linecap:butt"/><polyline points="86.65 291.23 165.1 268.96 243.55 246.7 322.01 224.44 400.46 202.17 478.91 179.91" clip-path="url(#cpNjcuMDR8NDk4LjUyfDM0Ni43MXwyNy44MA==)" style="stroke-width:1.07;stroke:#ebebeb;stroke-linecap:butt"/><polyline points="86.65 314.76 165.1 301.85 243.55 288.95 322.01 276.05 400.46 263.15 478.91 250.25" clip-path="url(#cpNjcuMDR8NDk4LjUyfDM0Ni43MXwyNy44MA==)" style="stroke-width:1.07;stroke:#ebebeb;stroke-linecap:butt"/><polyline points="86.65 270.33 165.1 244.19 243.55 218.06 322.01 191.92 400.46 165.78 478.91 139.65" clip-path="url(#cpNjcuMDR8NDk4LjUyfDM0Ni43MXwyNy44MA==)" style="stroke-width:1.07;stroke:#ebebeb;stroke-linecap:butt"/><polyline points="86.65 216.24 165.1 210.85 243.55 205.47 322.01 200.08 400.46 194.69 478.91 189.3" clip-path="url(#cpNjcuMDR8NDk4LjUyfDM0Ni43MXwyNy44MA==)" style="stroke-width:1.07;stroke:#ebebeb;stroke-linecap:butt"/><polyline points="86.65 327.5 165.1 309.76 243.55 292.03 322.01 274.29 400.46 256.56 478.91 238.83" clip-path="url(#cpNjcuMDR8NDk4LjUyfDM0Ni43MXwyNy44MA==)" style="stroke-width:1.07;stroke:#ebebeb;stroke-linecap:butt"/><polyline points="86.65 270.96 165.1 255.99 243.55 241.03 322.01 226.06 400.46 211.09 478.91 196.12" clip-path="url(#cpNjcuMDR8NDk4LjUyfDM0Ni43MXwyNy44MA==)" style="stroke-width:1.07;stroke:#ebebeb;stroke-linecap:butt"/><polyline points="86.65 253.46 165.1 247.4 243.55 241.33 322.01 235.27 400.46 229.2 478.91 223.14" clip-path="url(#cpNjcuMDR8NDk4LjUyfDM0Ni43MXwyNy44MA==)" style="stroke-width:1.07;stroke:#ebebeb;stroke-linecap:butt"/><polyline points="86.65 250.02 165.1 239.79 243.55 229.56 322.01 219.33 400.46 209.1 478.91 198.88" clip-path="url(#cpNjcuMDR8NDk4LjUyfDM0Ni43MXwyNy44MA==)" style="stroke-width:1.07;stroke:#ebebeb;stroke-linecap:butt"/><polyline points="86.65 290.32 165.1 264.65 243.55 238.98 322.01 213.31 400.46 187.64 478.91 161.97" clip-path="url(#cpNjcuMDR8NDk4LjUyfDM0Ni43MXwyNy44MA==)" style="stroke-width:1.07;stroke:#ebebeb;stroke-linecap:butt"/><polyline points="86.65 296.67 165.1 294.85 243.55 293.02 322.01 291.2 400.46 289.38 478.91 287.56" clip-path="url(#cpNjcuMDR8NDk4LjUyfDM0Ni43MXwyNy44MA==)" style="stroke-width:1.07;stroke:#ebebeb;stroke-linecap:butt"/><polyline points="86.65 292.86 165.1 267.95 243.55 243.03 322.01 218.12 400.46 193.2 478.91 168.29" clip-path="url(#cpNjcuMDR8NDk4LjUyfDM0Ni43MXwyNy44MA==)" style="stroke-width:1.07;stroke:#ebebeb;stroke-linecap:butt"/><polyline points="86.65 263.39 165.1 237.54 243.55 211.69 322.01 185.84 400.46 159.99 478.91 134.14" clip-path="url(#cpNjcuMDR8NDk4LjUyfDM0Ni43MXwyNy44MA==)" style="stroke-width:1.07;stroke:#ebebeb;stroke-linecap:butt"/><polyline points="86.65 259.68 165.1 237.42 243.55 215.17 322.01 192.92 400.46 170.67 478.91 148.41" clip-path="url(#cpNjcuMDR8NDk4LjUyfDM0Ni43MXwyNy44MA==)" style="stroke-width:1.07;stroke:#ebebeb;stroke-linecap:butt"/><polyline points="86.65 284.93 165.1 274.12 243.55 263.31 322.01 252.5 400.46 241.69 478.91 230.88" clip-path="url(#cpNjcuMDR8NDk4LjUyfDM0Ni43MXwyNy44MA==)" style="stroke-width:1.07;stroke:#ebebeb;stroke-linecap:butt"/><polyline points="86.65 223.36 165.1 205.19 243.55 187.02 322.01 168.85 400.46 150.69 478.91 132.52" clip-path="url(#cpNjcuMDR8NDk4LjUyfDM0Ni43MXwyNy44MA==)" style="stroke-width:1.07;stroke:#ebebeb;stroke-linecap:butt"/><polyline points="86.65 304.51 165.1 305.81 243.55 307.11 322.01 308.41 400.46 309.7 478.91 311" clip-path="url(#cpNjcuMDR8NDk4LjUyfDM0Ni43MXwyNy44MA==)" style="stroke-width:1.07;stroke:#b20076;stroke-linecap:butt"/><polyline points="86.65 283.7 165.1 285.86 243.55 288.02 322.01 290.18 400.46 292.33 478.91 294.49" clip-path="url(#cpNjcuMDR8NDk4LjUyfDM0Ni43MXwyNy44MA==)" style="stroke-width:1.07;stroke:#b20076;stroke-linecap:butt"/><polyline points="86.65 288.1 165.1 289.21 243.55 290.33 322.01 291.44 400.46 292.56 478.91 293.68" clip-path="url(#cpNjcuMDR8NDk4LjUyfDM0Ni43MXwyNy44MA==)" style="stroke-width:1.07;stroke:#b20076;stroke-linecap:butt"/><defs><clipPath id="cpMC4wMHw1MDQuMDB8Mzc4LjAwfDAuMDA="><rect width="504" height="378" x="0" y="0"/></clipPath></defs><g clip-path="url(#cpMC4wMHw1MDQuMDB8Mzc4LjAwfDAuMDA=)"><text x="48.76" y="286.11" lengthAdjust="spacingAndGlyphs" textLength="13.35" style="font-size:9.6px;fill:#4d4d4d;font-family:Arial">2.5</text></g><g clip-path="url(#cpMC4wMHw1MDQuMDB8Mzc4LjAwfDAuMDA=)"><text x="48.76" y="213.11" lengthAdjust="spacingAndGlyphs" textLength="13.35" style="font-size:9.6px;fill:#4d4d4d;font-family:Arial">3.0</text></g><g clip-path="url(#cpMC4wMHw1MDQuMDB8Mzc4LjAwfDAuMDA=)"><text x="48.76" y="140.1" lengthAdjust="spacingAndGlyphs" textLength="13.35" style="font-size:9.6px;fill:#4d4d4d;font-family:Arial">3.5</text></g><g clip-path="url(#cpMC4wMHw1MDQuMDB8Mzc4LjAwfDAuMDA=)"><text x="48.76" y="67.09" lengthAdjust="spacingAndGlyphs" textLength="13.35" style="font-size:9.6px;fill:#4d4d4d;font-family:Arial">4.0</text></g><polyline points="64.3 282.68 67.04 282.68" clip-path="url(#cpMC4wMHw1MDQuMDB8Mzc4LjAwfDAuMDA=)" style="stroke-width:1.07;stroke:#333;stroke-linecap:butt"/><polyline points="64.3 209.67 67.04 209.67" clip-path="url(#cpMC4wMHw1MDQuMDB8Mzc4LjAwfDAuMDA=)" style="stroke-width:1.07;stroke:#333;stroke-linecap:butt"/><polyline points="64.3 136.66 67.04 136.66" clip-path="url(#cpMC4wMHw1MDQuMDB8Mzc4LjAwfDAuMDA=)" style="stroke-width:1.07;stroke:#333;stroke-linecap:butt"/><polyline points="64.3 63.65 67.04 63.65" clip-path="url(#cpMC4wMHw1MDQuMDB8Mzc4LjAwfDAuMDA=)" style="stroke-width:1.07;stroke:#333;stroke-linecap:butt"/><polyline points="86.65 349.45 86.65 346.71" clip-path="url(#cpMC4wMHw1MDQuMDB8Mzc4LjAwfDAuMDA=)" style="stroke-width:1.07;stroke:#333;stroke-linecap:butt"/><polyline points="165.1 349.45 165.1 346.71" clip-path="url(#cpMC4wMHw1MDQuMDB8Mzc4LjAwfDAuMDA=)" style="stroke-width:1.07;stroke:#333;stroke-linecap:butt"/><polyline points="243.55 349.45 243.55 346.71" clip-path="url(#cpMC4wMHw1MDQuMDB8Mzc4LjAwfDAuMDA=)" style="stroke-width:1.07;stroke:#333;stroke-linecap:butt"/><polyline points="322.01 349.45 322.01 346.71" clip-path="url(#cpMC4wMHw1MDQuMDB8Mzc4LjAwfDAuMDA=)" style="stroke-width:1.07;stroke:#333;stroke-linecap:butt"/><polyline points="400.46 349.45 400.46 346.71" clip-path="url(#cpMC4wMHw1MDQuMDB8Mzc4LjAwfDAuMDA=)" style="stroke-width:1.07;stroke:#333;stroke-linecap:butt"/><polyline points="478.91 349.45 478.91 346.71" clip-path="url(#cpMC4wMHw1MDQuMDB8Mzc4LjAwfDAuMDA=)" style="stroke-width:1.07;stroke:#333;stroke-linecap:butt"/><g clip-path="url(#cpMC4wMHw1MDQuMDB8Mzc4LjAwfDAuMDA=)"><text x="83.98" y="358.51" lengthAdjust="spacingAndGlyphs" textLength="5.34" style="font-size:9.6px;fill:#4d4d4d;font-family:Arial">0</text></g><g clip-path="url(#cpMC4wMHw1MDQuMDB8Mzc4LjAwfDAuMDA=)"><text x="162.43" y="358.51" lengthAdjust="spacingAndGlyphs" textLength="5.34" style="font-size:9.6px;fill:#4d4d4d;font-family:Arial">1</text></g><g clip-path="url(#cpMC4wMHw1MDQuMDB8Mzc4LjAwfDAuMDA=)"><text x="240.88" y="358.51" lengthAdjust="spacingAndGlyphs" textLength="5.34" style="font-size:9.6px;fill:#4d4d4d;font-family:Arial">2</text></g><g clip-path="url(#cpMC4wMHw1MDQuMDB8Mzc4LjAwfDAuMDA=)"><text x="319.34" y="358.51" lengthAdjust="spacingAndGlyphs" textLength="5.34" style="font-size:9.6px;fill:#4d4d4d;font-family:Arial">3</text></g><g clip-path="url(#cpMC4wMHw1MDQuMDB8Mzc4LjAwfDAuMDA=)"><text x="397.79" y="358.51" lengthAdjust="spacingAndGlyphs" textLength="5.34" style="font-size:9.6px;fill:#4d4d4d;font-family:Arial">4</text></g><g clip-path="url(#cpMC4wMHw1MDQuMDB8Mzc4LjAwfDAuMDA=)"><text x="476.24" y="358.51" lengthAdjust="spacingAndGlyphs" textLength="5.34" style="font-size:9.6px;fill:#4d4d4d;font-family:Arial">5</text></g><g clip-path="url(#cpMC4wMHw1MDQuMDB8Mzc4LjAwfDAuMDA=)"><text x="460.63" y="370.32" lengthAdjust="spacingAndGlyphs" textLength="37.89" style="font-size:9.6px;fill:#4d4d4d;font-family:Arial">occasion</text></g><g clip-path="url(#cpMC4wMHw1MDQuMDB8Mzc4LjAwfDAuMDA=)"><text x="5.48" y="34.68" lengthAdjust="spacingAndGlyphs" textLength="40.54" style="font-size:9.6px;fill:#4d4d4d;font-family:Arial">mixed fits</text></g><g clip-path="url(#cpMC4wMHw1MDQuMDB8Mzc4LjAwfDAuMDA=)"><text x="67.04" y="18.36" lengthAdjust="spacingAndGlyphs" textLength="237.08" style="font-size:18px;fill:#4d4d4d;font-family:Arial">Predictions from mixed model</text></g></svg>